<?xml version="1.0" ?><!DOCTYPE svg  PUBLIC '-//W3C//DTD SVG 1.1//EN'  'http://www.w3.org/Graphics/SVG/1.1/DTD/svg11.dtd'><svg height="512px" style="enable-background:new 0 0 512 512;" version="1.1" viewBox="0 0 512 512" width="512px" xml:space="preserve" xmlns="http://www.w3.org/2000/svg" xmlns:xlink="http://www.w3.org/1999/xlink"><g id="_x31_06-google_duo"><g><g><g><g><path d="M464.566,16.407H264.082c-129.357,0-237.531,97.463-246.273,221.902       C12.92,307.805,38.18,375.787,87.09,424.834c44.92,45.034,105.703,70.035,168.994,70.035c5.639,0,11.301-0.178,17.002-0.596       c124.072-8.761,221.303-117.233,221.303-246.938V46.313C494.389,29.837,481.023,16.407,464.566,16.407L464.566,16.407z        M464.566,16.407" style="fill:#2299F8;"/></g><path d="M404.912,300.512c0,5.176-2.686,9.989-7.074,12.741c-4.348,2.663-9.867,2.99-14.492,0.629      l-38.086-19.079v35.616c0,8.255-6.68,14.952-14.912,14.952H151.399c-8.236,0-14.916-6.697-14.916-14.952v-149.53      c0-8.257,6.68-14.953,14.916-14.953h178.949c8.232,0,14.912,6.696,14.912,14.953v35.618l38.059-19.081      c4.594-2.332,10.145-2.063,14.496,0.659c4.412,2.724,7.098,7.537,7.098,12.713V300.512z M404.912,300.512" style="fill:#F1F5F7;"/></g></g></g></g><g id="Layer_1"/></svg>